<?xml version="1.0" encoding="utf-8"?>
<!-- Generator: Adobe Illustrator 16.2.0, SVG Export Plug-In . SVG Version: 6.00 Build 0)  -->
<!DOCTYPE svg PUBLIC "-//W3C//DTD SVG 1.1//EN" "http://www.w3.org/Graphics/SVG/1.1/DTD/svg11.dtd">
<svg version="1.1" id="Layer_9" xmlns="http://www.w3.org/2000/svg" xmlns:xlink="http://www.w3.org/1999/xlink" x="0px" y="0px"
	 width="77.324px" height="62.321px" viewBox="11.338 18.839 77.324 62.321"
	 style="enable-background:new 11.338 18.839 77.324 62.321;" xml:space="preserve">
<path d="M88.662,47.459l-7.564-16.287l-0.108,0.05v-0.316l-0.07,0.028l0.045-0.113L51.547,18.839L19.67,30.947l-0.102-0.04v0.02
	l-8.23,12.11l8.23-0.726v27.124l29.613,11.68v0.047h2.193v-0.047l29.612-11.68V50.757L88.662,47.459z M51.592,42.502L51.59,21.225
	l26.539,10.812L51.592,42.502z M49.182,78.755l-27.42-10.815V34.13l27.42,10.816V78.755z M78.795,67.939l-27.42,10.814V44.947
	l6.027,15.948L78.795,51.7V67.939z"/>
</svg>
