<?xml version="1.0" encoding="utf-8"?>
<!-- Generator: Adobe Illustrator 17.0.0, SVG Export Plug-In . SVG Version: 6.00 Build 0)  -->
<!DOCTYPE svg PUBLIC "-//W3C//DTD SVG 1.1//EN" "http://www.w3.org/Graphics/SVG/1.1/DTD/svg11.dtd">
<svg version="1.1" id="Capa_1" xmlns="http://www.w3.org/2000/svg" xmlns:xlink="http://www.w3.org/1999/xlink" x="0px" y="0px"
	 width="64px" height="64px" viewBox="0 0 64 64" enable-background="new 0 0 64 64" xml:space="preserve">
<g>
	<path d="M24.837,52.655c0.427,0.451,0.995,0.699,1.601,0.699c0.641,0,1.25-0.288,1.672-0.791
		c8.154-9.736,19.136-21.88,23.247-24.063c0.906-0.482,1.515-1.456,1.515-2.423V10.185c0-1.255-0.919-1.933-1.783-1.933
		c-0.315,0-0.795,0.086-1.284,0.494c-3.067,2.556-17.81,15.301-22.718,27.964l-4.691-7.624c-0.63-1.02-2.088-1.386-3.122-0.783
		L8.918,34.327c-0.599,0.349-0.981,0.924-1.046,1.579C7.807,36.56,8.066,37.2,8.586,37.661
		C10.725,39.56,21.563,49.204,24.837,52.655z M20.195,31.237l5.636,9.16c0.378,0.613,0.96,0.965,1.597,0.965
		c0.613,0,1.437-0.375,1.736-1.433c3.091-10.9,15.443-22.66,20.707-27.289v13.253c-5.462,2.98-18.68,18.348-23.482,24.054
		c-3.429-3.46-11.281-10.499-14.85-13.674L20.195,31.237z"/>
</g>
</svg>
