<?xml version="1.0" encoding="utf-8"?>
<!-- Generator: Adobe Illustrator 16.0.4, SVG Export Plug-In . SVG Version: 6.00 Build 0)  -->
<!DOCTYPE svg PUBLIC "-//W3C//DTD SVG 1.1//EN" "http://www.w3.org/Graphics/SVG/1.1/DTD/svg11.dtd">
<svg version="1.1" id="Layer_1" xmlns="http://www.w3.org/2000/svg" xmlns:xlink="http://www.w3.org/1999/xlink" x="0px" y="0px"
	 width="50px" height="50px" viewBox="0 0 50 50" enable-background="new 0 0 50 50" xml:space="preserve">
<g>
	<rect x="21.907" y="22.28" width="2.433" height="0.928"/>
	<rect x="26.165" y="31.756" width="5.979" height="0.93"/>
	<rect x="26.165" y="33.846" width="5.979" height="0.93"/>
	<rect x="21.907" y="24.741" width="2.433" height="0.929"/>
	<rect x="18.18" y="33.846" width="6.16" height="0.93"/>
	<rect x="18.18" y="31.756" width="6.16" height="0.93"/>
	<path d="M20.102,25.58h-0.063v0.088h1.558V25.58c-0.099-0.008-0.174-0.037-0.228-0.085c-0.071-0.064-0.163-0.223-0.274-0.473
		l-1.16-2.642h-0.047l-1.15,2.57c-0.11,0.243-0.201,0.407-0.275,0.485c-0.076,0.076-0.171,0.125-0.285,0.144v0.088h1.072V25.58
		c-0.169-0.014-0.273-0.031-0.316-0.059c-0.074-0.042-0.109-0.108-0.109-0.201c0-0.065,0.021-0.152,0.066-0.258l0.135-0.312h1.14
		l0.171,0.399c0.045,0.105,0.068,0.164,0.07,0.181c0.01,0.028,0.017,0.06,0.017,0.085c0,0.05-0.019,0.085-0.054,0.111
		C20.312,25.562,20.227,25.58,20.102,25.58z M19.104,24.577l0.496-1.111l0.479,1.111H19.104z"/>
	<rect x="18.18" y="27.203" width="6.16" height="0.928"/>
	<rect x="18.18" y="29.477" width="6.16" height="0.932"/>
	<rect x="26.165" y="24.741" width="5.979" height="0.929"/>
	<path d="M24.636,17.249h-0.095c-0.087,0.311-0.229,0.543-0.428,0.693c-0.196,0.152-0.459,0.229-0.788,0.229h-0.21
		c-0.1,0-0.174-0.013-0.219-0.041c-0.043-0.027-0.073-0.062-0.09-0.105c-0.019-0.043-0.025-0.162-0.025-0.354V16.68
		c0.167,0,0.296,0.022,0.385,0.065c0.087,0.043,0.163,0.13,0.23,0.258c0.066,0.128,0.109,0.292,0.131,0.492h0.1v-1.841h-0.1
		c-0.027,0.273-0.092,0.479-0.19,0.621c-0.103,0.14-0.262,0.209-0.483,0.209h-0.071v-1.43h0.362c0.266,0,0.446,0.014,0.545,0.047
		c0.164,0.051,0.293,0.131,0.385,0.242c0.091,0.111,0.16,0.293,0.21,0.547h0.1v-1.039h-2.94v0.097h0.117
		c0.113,0,0.203,0.022,0.271,0.071c0.045,0.033,0.078,0.08,0.095,0.142c0.01,0.034,0.014,0.134,0.014,0.293v2.312
		c0,0.176-0.01,0.284-0.027,0.325c-0.025,0.06-0.061,0.101-0.104,0.125c-0.062,0.036-0.146,0.056-0.248,0.056h-0.115v0.096h3.037
		L24.636,17.249z"/>
	<rect x="17.738" y="19.454" width="14.809" height="0.928"/>
	<path d="M18.984,18.27H18.9c-0.117,0-0.226-0.035-0.316-0.106c-0.093-0.07-0.139-0.207-0.139-0.409v-2.232l2.377,2.926h0.087
		v-2.926c0-0.166,0.015-0.281,0.044-0.352c0.027-0.066,0.066-0.117,0.117-0.146c0.053-0.031,0.15-0.056,0.302-0.074v-0.096h-1.163
		v0.096c0.196-0.002,0.336,0.045,0.417,0.145c0.062,0.075,0.093,0.217,0.093,0.428v1.513l-1.734-2.181h-1.245v0.097
		c0.106,0.004,0.188,0.021,0.247,0.049c0.056,0.03,0.121,0.092,0.195,0.185l0.075,0.094v2.479c0,0.188-0.038,0.319-0.114,0.396
		c-0.076,0.078-0.211,0.117-0.403,0.119v0.097h1.245V18.27L18.984,18.27z"/>
	<path d="M34.288,10H15.712c-0.59,0-1.067,0.479-1.067,1.068v27.863c0,0.59,0.479,1.068,1.067,1.068h18.576
		c0.59,0,1.067-0.48,1.067-1.068V11.069C35.355,10.479,34.878,10,34.288,10z M25,39.166c-0.37,0-0.669-0.301-0.669-0.67
		c0-0.371,0.299-0.67,0.669-0.67s0.669,0.299,0.669,0.67C25.669,38.865,25.37,39.166,25,39.166z M33.221,36.801H16.779V12.536
		h16.439v24.265H33.221z"/>
	<path d="M25.243,15.579l1.155,2.867h0.099l0.957-2.264l0.871,2.264h0.1l1.103-2.9c0.1-0.246,0.154-0.38,0.162-0.4
		c0.035-0.063,0.074-0.11,0.119-0.143c0.047-0.031,0.102-0.049,0.168-0.055v-0.096h-0.912v0.096
		c0.136,0.004,0.229,0.025,0.276,0.066s0.073,0.096,0.073,0.166c0,0.049-0.008,0.103-0.021,0.157
		c-0.016,0.058-0.052,0.164-0.11,0.318l-0.573,1.507L28.066,15.5c-0.075-0.204-0.115-0.326-0.115-0.365
		c0-0.037,0.011-0.068,0.031-0.099c0.021-0.028,0.049-0.048,0.084-0.06c0.054-0.019,0.139-0.027,0.259-0.029v-0.096h-1.703v0.096
		c0.11,0,0.192,0.015,0.248,0.043c0.057,0.031,0.104,0.078,0.149,0.146c0.043,0.068,0.104,0.205,0.183,0.407l0.146,0.374
		l-0.552,1.331l-0.688-1.705c-0.086-0.211-0.127-0.351-0.127-0.416c0-0.05,0.021-0.093,0.062-0.125
		c0.04-0.033,0.122-0.053,0.245-0.058V14.85h-1.523v0.096c0.11,0.011,0.188,0.046,0.235,0.106
		C25.045,15.115,25.127,15.29,25.243,15.579z"/>
	<rect x="26.165" y="29.477" width="5.979" height="0.932"/>
	<rect x="26.165" y="27.203" width="5.979" height="0.928"/>
	<rect x="26.165" y="22.28" width="5.979" height="0.928"/>
	<path d="M30.355,18.288c0.051-0.035,0.098-0.053,0.143-0.053c0.053,0,0.122,0.018,0.203,0.053c0.148,0.062,0.271,0.105,0.372,0.127
		c0.099,0.021,0.202,0.033,0.313,0.033c0.353,0,0.643-0.105,0.87-0.316c0.229-0.212,0.343-0.465,0.343-0.758
		c0-0.232-0.07-0.438-0.211-0.617c-0.145-0.18-0.422-0.369-0.832-0.572c-0.293-0.145-0.481-0.246-0.562-0.304
		c-0.11-0.08-0.19-0.159-0.241-0.239c-0.036-0.062-0.054-0.131-0.054-0.209c0-0.123,0.051-0.229,0.153-0.324
		c0.104-0.094,0.242-0.143,0.42-0.143c0.227,0,0.438,0.09,0.635,0.268c0.195,0.181,0.318,0.418,0.369,0.711h0.104l-0.028-1.172
		h-0.076c-0.021,0.105-0.047,0.172-0.072,0.199s-0.062,0.041-0.105,0.041c-0.047,0-0.129-0.027-0.246-0.084
		c-0.115-0.056-0.215-0.095-0.295-0.115c-0.106-0.026-0.219-0.041-0.332-0.041c-0.313,0-0.571,0.099-0.778,0.295
		c-0.205,0.197-0.308,0.437-0.308,0.716c0,0.163,0.037,0.313,0.111,0.45c0.076,0.138,0.184,0.261,0.322,0.371
		c0.142,0.111,0.369,0.244,0.689,0.4c0.229,0.113,0.389,0.203,0.478,0.273c0.091,0.07,0.155,0.145,0.2,0.222
		s0.065,0.159,0.065,0.241c0,0.141-0.059,0.263-0.173,0.367c-0.113,0.104-0.27,0.158-0.462,0.158c-0.251,0-0.481-0.099-0.7-0.293
		c-0.218-0.197-0.363-0.48-0.439-0.854h-0.096v1.325h0.096C30.266,18.375,30.305,18.323,30.355,18.288z"/>
</g>
</svg>
