<?xml version="1.0" encoding="utf-8"?>
<!-- Generator: Adobe Illustrator 15.0.0, SVG Export Plug-In . SVG Version: 6.00 Build 0)  -->
<!DOCTYPE svg PUBLIC "-//W3C//DTD SVG 1.1//EN" "http://www.w3.org/Graphics/SVG/1.1/DTD/svg11.dtd">
<svg version="1.1" id="Layer_1" xmlns="http://www.w3.org/2000/svg" xmlns:xlink="http://www.w3.org/1999/xlink" x="0px" y="0px"
	 width="26px" height="26px" viewBox="0 0 26 26" enable-background="new 0 0 26 26" xml:space="preserve">
<g>
	<path d="M10.146,6.39H7.913c-0.494,0-0.894,0.4-0.894,0.894v11.434c0,0.493,0.4,0.893,0.894,0.893h2.233
		c0.494,0,0.894-0.399,0.894-0.893V7.284C11.041,6.79,10.641,6.39,10.146,6.39z"/>
	<path d="M18.088,6.39h-2.234c-0.493,0-0.894,0.4-0.894,0.894v11.434c0,0.493,0.4,0.893,0.894,0.893h2.234
		c0.494,0,0.894-0.399,0.894-0.893V7.284C18.981,6.79,18.582,6.39,18.088,6.39z"/>
</g>
</svg>
