<?xml version="1.0" encoding="iso-8859-1"?>
<!-- Generator: Adobe Illustrator 16.0.0, SVG Export Plug-In . SVG Version: 6.00 Build 0)  -->
<!DOCTYPE svg PUBLIC "-//W3C//DTD SVG 1.1//EN" "http://www.w3.org/Graphics/SVG/1.1/DTD/svg11.dtd">
<svg version="1.1" id="Layer_1" xmlns="http://www.w3.org/2000/svg" xmlns:xlink="http://www.w3.org/1999/xlink" x="0px" y="0px"
	 width="36px" height="36px" viewBox="0 0 36 36" style="enable-background:new 0 0 36 36;" xml:space="preserve">
<path style="fill:#010101;" d="M27.084,9.036c-0.491-0.354-1.174-0.243-1.527,0.247c-0.354,0.49-0.243,1.174,0.247,1.527
	c3.885,2.802,5.143,7.95,2.992,12.24c-1.165,2.322-3.164,4.052-5.629,4.87c-2.465,0.819-5.102,0.628-7.424-0.536
	c-2.321-1.165-4.051-3.164-4.87-5.628c-0.818-2.466-0.627-5.102,0.538-7.424c1.415-2.822,4.126-4.788,7.252-5.259
	c0.021-0.002,0.039-0.01,0.06-0.015l0.045,2.161c0.006,0.239,0.155,0.452,0.377,0.539c0.223,0.087,0.477,0.031,0.642-0.142
	l3.112-3.247c0.227-0.236,0.218-0.611-0.017-0.837l-3.248-3.112c-0.173-0.166-0.428-0.211-0.647-0.114
	c-0.072,0.031-0.136,0.077-0.189,0.132c-0.106,0.111-0.167,0.262-0.165,0.422l0.043,2.058c-0.11-0.018-0.223-0.025-0.339-0.008
	c-3.829,0.577-7.149,2.985-8.882,6.441c-2.945,5.872-0.563,13.044,5.308,15.989c1.709,0.857,3.528,1.263,5.321,1.263
	c4.368,0,8.58-2.408,10.668-6.571C33.387,18.776,31.845,12.469,27.084,9.036z"/>
</svg>
