<?xml version="1.0" encoding="utf-8"?>
<!-- Generator: Adobe Illustrator 16.2.0, SVG Export Plug-In . SVG Version: 6.00 Build 0)  -->
<!DOCTYPE svg PUBLIC "-//W3C//DTD SVG 1.1//EN" "http://www.w3.org/Graphics/SVG/1.1/DTD/svg11.dtd">
<svg version="1.1" id="Layer_1" xmlns="http://www.w3.org/2000/svg" xmlns:xlink="http://www.w3.org/1999/xlink" x="0px" y="0px"
	 width="23.838px" height="26.348px" viewBox="8.192 4.255 23.838 26.348"
	 style="enable-background:new 8.192 4.255 23.838 26.348;" xml:space="preserve">
<style type="text/css">
<![CDATA[
	.st0{fill:#010101;}
]]>
</style>
<path class="st0" d="M27.084,9.036c-0.491-0.354-1.174-0.243-1.527,0.247c-0.354,0.49-0.242,1.174,0.248,1.527
	c3.885,2.802,5.143,7.95,2.991,12.24c-1.165,2.322-3.164,4.052-5.629,4.87s-5.102,0.628-7.424-0.536
	c-2.321-1.165-4.051-3.163-4.87-5.628c-0.818-2.466-0.627-5.102,0.538-7.424c1.415-2.822,4.126-4.788,7.252-5.259
	c0.021-0.002,0.039-0.01,0.06-0.015l0.045,2.161c0.006,0.239,0.155,0.452,0.377,0.539c0.224,0.087,0.478,0.031,0.643-0.142
	l3.111-3.247c0.228-0.236,0.219-0.611-0.017-0.837L19.634,4.42c-0.173-0.166-0.428-0.211-0.647-0.114
	c-0.071,0.031-0.135,0.077-0.188,0.132C18.691,4.549,18.631,4.7,18.633,4.86l0.043,2.058C18.566,6.9,18.453,6.893,18.337,6.91
	c-3.829,0.577-7.149,2.985-8.882,6.441C6.51,19.223,8.892,26.395,14.763,29.34c1.709,0.857,3.528,1.264,5.321,1.264
	c4.368,0,8.58-2.408,10.668-6.572C33.387,18.775,31.846,12.469,27.084,9.036z"/>
</svg>
