<?xml version="1.0" encoding="utf-8"?>
<!-- Generator: Adobe Illustrator 16.0.4, SVG Export Plug-In . SVG Version: 6.00 Build 0)  -->
<!DOCTYPE svg PUBLIC "-//W3C//DTD SVG 1.1//EN" "http://www.w3.org/Graphics/SVG/1.1/DTD/svg11.dtd">
<svg version="1.1" id="Layer_1" xmlns="http://www.w3.org/2000/svg" xmlns:xlink="http://www.w3.org/1999/xlink" x="0px" y="0px"
	 width="24px" height="19.086px" viewBox="0 0 24 19.086" enable-background="new 0 0 24 19.086" xml:space="preserve">
<path d="M17.7,6.3l-3.722,5.499C13.986,11.866,14,11.932,14,12c0,1.104-0.896,2-2,2c-1.104,0-2-0.896-2-2s0.896-2,2-2
	c0.069,0,0.134,0.014,0.201,0.021L17.7,6.3z M12,0C5.383,0,0,5.383,0,12c0,2.525,0.813,5.042,2.29,7.086l1.621-1.172
	C2.874,16.479,2.235,14.764,2.057,13H3v-2H2.051c0.2-2.008,0.998-3.842,2.211-5.324l0.631,0.631l1.414-1.414L5.676,4.262
	C7.158,3.048,8.992,2.251,11,2.051V3h2V2.051c2.008,0.2,3.843,0.998,5.324,2.211l-0.631,0.631l1.414,1.414l0.631-0.631
	c1.213,1.482,2.011,3.316,2.211,5.324H21v2h0.943c-0.18,1.764-0.817,3.479-1.854,4.914l1.621,1.172C23.188,17.042,24,14.525,24,12
	C24,5.383,18.617,0,12,0z"/>
</svg>
