<?xml version="1.0" encoding="utf-8"?>
<!-- Generator: Adobe Illustrator 16.0.0, SVG Export Plug-In . SVG Version: 6.00 Build 0)  -->
<!DOCTYPE svg PUBLIC "-//W3C//DTD SVG 1.1//EN" "http://www.w3.org/Graphics/SVG/1.1/DTD/svg11.dtd">
<svg version="1.1" id="Layer_1" xmlns="http://www.w3.org/2000/svg" xmlns:xlink="http://www.w3.org/1999/xlink" x="0px" y="0px"
	 width="50px" height="50px" viewBox="0 0 50 50" enable-background="new 0 0 50 50" xml:space="preserve">
<path d="M35.274,16.059c-2.645-2.645-6.16-4.101-9.899-4.101s-7.255,1.456-9.899,4.101c-2.645,2.644-4.101,6.16-4.101,9.899
	c0,3.739,1.456,7.255,4.101,9.899c2.645,2.645,6.16,4.101,9.899,4.101s7.255-1.456,9.899-4.101c2.645-2.644,4.101-6.16,4.101-9.899
	C39.375,22.219,37.919,18.703,35.274,16.059z M14.375,25.958c0-2.938,1.144-5.701,3.222-7.778s4.841-3.222,7.778-3.222
	c2.432,0,4.735,0.794,6.638,2.241L16.616,32.596C15.169,30.694,14.375,28.39,14.375,25.958z M33.153,33.737
	c-2.078,2.078-4.841,3.222-7.778,3.222c-2.432,0-4.735-0.794-6.638-2.241l15.396-15.396c1.447,1.902,2.241,4.207,2.241,6.638
	C36.375,28.897,35.231,31.659,33.153,33.737z"/>
</svg>
